<svg width="20" height="20" viewBox="0 0 20 20" fill="none" xmlns="http://www.w3.org/2000/svg">
<path fill-rule="evenodd" clip-rule="evenodd" d="M3.25277 13.044L4.41777 13.2224C5.27777 13.354 5.89194 14.124 5.82861 14.9915L5.74277 16.1674C5.71777 16.5099 5.90444 16.8324 6.21361 16.9815L7.07527 17.3965C7.38444 17.5457 7.75361 17.4899 8.00611 17.2574L8.87194 16.4574C9.51027 15.8674 10.4953 15.8674 11.1344 16.4574L12.0003 17.2574C12.2528 17.4907 12.6211 17.5457 12.9311 17.3965L13.7944 16.9807C14.1028 16.8324 14.2886 16.5107 14.2636 16.169L14.1778 14.9915C14.1144 14.124 14.7286 13.354 15.5886 13.2224L16.7536 13.044C17.0928 12.9924 17.3661 12.7382 17.4428 12.4032L17.6553 11.4715C17.7319 11.1365 17.5961 10.789 17.3128 10.5957L16.3403 9.92988C15.6228 9.43821 15.4036 8.47821 15.8369 7.72405L16.4244 6.70238C16.5953 6.40488 16.5669 6.03238 16.3528 5.76405L15.7569 5.01655C15.5428 4.74821 15.1861 4.63738 14.8578 4.73821L13.7311 5.08321C12.8986 5.33821 12.0111 4.91071 11.6911 4.10155L11.2594 3.00738C11.1328 2.68738 10.8236 2.47738 10.4794 2.47821L9.52444 2.48071C9.18027 2.48155 8.87194 2.69321 8.74694 3.01405L8.32611 4.09571C8.00944 4.90988 7.11777 5.34071 6.28277 5.08405L5.10944 4.72405C4.78027 4.62238 4.42194 4.73405 4.20777 5.00405L3.61611 5.75238C3.40194 6.02321 3.37611 6.39655 3.55027 6.69405L4.15111 7.71821C4.59361 8.47321 4.37694 9.44238 3.65527 9.93655L2.69444 10.5949C2.41111 10.789 2.27527 11.1365 2.35194 11.4707L2.56444 12.4024C2.64027 12.7382 2.91361 12.9924 3.25277 13.044V13.044Z" stroke="#1C1E26" stroke-width="1.5" stroke-linecap="round" stroke-linejoin="round"/>
<path d="M11.5966 8.40878C12.4782 9.29044 12.4782 10.7204 11.5966 11.6021C10.7149 12.4838 9.2849 12.4838 8.40323 11.6021C7.52156 10.7204 7.52156 9.29044 8.40323 8.40878C9.2849 7.52711 10.7149 7.52711 11.5966 8.40878" stroke="#1C1E26" stroke-width="1.5" stroke-linecap="round" stroke-linejoin="round"/>
</svg>
