<svg width="20" height="20" viewBox="0 0 20 20" fill="none" xmlns="http://www.w3.org/2000/svg">
<path d="M10.0375 4.14918L4.20417 4.14918C3.28334 4.14918 2.53751 4.89501 2.53751 5.81585L2.53751 15.8158C2.53751 16.7367 3.28334 17.4825 4.20417 17.4825L14.2042 17.4825C15.125 17.4825 15.8708 16.7367 15.8708 15.8158L15.8708 9.98251" stroke="#5563F5" stroke-width="1.5" stroke-linecap="round" stroke-linejoin="round"/>
<path fill-rule="evenodd" clip-rule="evenodd" d="M16.0517 2.79002L17.23 3.96835C17.5558 4.29419 17.5558 4.82169 17.23 5.14669L10.9542 11.4225C10.7983 11.5792 10.5858 11.6667 10.365 11.6667L8.35333 11.6667L8.35333 9.65502C8.35333 9.43419 8.44083 9.22169 8.5975 9.06585L14.8733 2.79002C15.1983 2.46419 15.7258 2.46419 16.0517 2.79002V2.79002Z" stroke="#5563F5" stroke-width="1.5" stroke-linecap="round" stroke-linejoin="round"/>
</svg>
