<svg width="20" height="20" viewBox="0 0 20 20" fill="none" xmlns="http://www.w3.org/2000/svg">
<path d="M11.3334 16.6667H8.66669" stroke="#1C1E26" stroke-width="1.5" stroke-linecap="round" stroke-linejoin="round"/>
<path fill-rule="evenodd" clip-rule="evenodd" d="M14.1667 8.36001V8.33334V8.33334C14.1667 6.03251 12.3009 4.16667 10 4.16667V4.16667C7.69919 4.16667 5.83335 6.03251 5.83335 8.33334V8.33334V8.36001V10.42C5.83335 10.69 5.68085 10.9358 5.44002 11.0567L5.02085 11.2658C4.49752 11.5283 4.16669 12.0633 4.16669 12.6483V12.6483C4.16669 13.5017 4.85835 14.1933 5.71169 14.1933H14.2884C15.1417 14.1933 15.8334 13.5017 15.8334 12.6483V12.6483C15.8334 12.0633 15.5025 11.5283 14.9792 11.2667L14.56 11.0575C14.3192 10.9358 14.1667 10.69 14.1667 10.42V8.36001Z" stroke="#1C1E26" stroke-width="1.5" stroke-linecap="round" stroke-linejoin="round"/>
</svg>
